<?xml version="1.0" standalone="no"?>
<svg xmlns:xlink="http://www.w3.org/1999/xlink" id="wave" style="transform:rotate(180deg); transition: 0.3s" viewBox="0 0 1440 100" version="1.1" xmlns="http://www.w3.org/2000/svg"><defs><linearGradient id="sw-gradient-0" x1="0" x2="0" y1="1" y2="0"><stop stop-color="rgba(249, 238, 201, 1)" offset="0%"/><stop stop-color="rgba(249, 238, 201, 1)" offset="100%"/></linearGradient></defs><path style="transform:translate(0, 0px); opacity:1" fill="url(#sw-gradient-0)" d="M0,20L30,18.3C60,17,120,13,180,11.7C240,10,300,10,360,15C420,20,480,30,540,36.7C600,43,660,47,720,40C780,33,840,17,900,13.3C960,10,1020,20,1080,30C1140,40,1200,50,1260,60C1320,70,1380,80,1440,81.7C1500,83,1560,77,1620,61.7C1680,47,1740,23,1800,23.3C1860,23,1920,47,1980,56.7C2040,67,2100,63,2160,61.7C2220,60,2280,60,2340,58.3C2400,57,2460,53,2520,45C2580,37,2640,23,2700,28.3C2760,33,2820,57,2880,56.7C2940,57,3000,33,3060,30C3120,27,3180,43,3240,51.7C3300,60,3360,60,3420,65C3480,70,3540,80,3600,75C3660,70,3720,50,3780,36.7C3840,23,3900,17,3960,11.7C4020,7,4080,3,4140,15C4200,27,4260,53,4290,66.7L4320,80L4320,100L4290,100C4260,100,4200,100,4140,100C4080,100,4020,100,3960,100C3900,100,3840,100,3780,100C3720,100,3660,100,3600,100C3540,100,3480,100,3420,100C3360,100,3300,100,3240,100C3180,100,3120,100,3060,100C3000,100,2940,100,2880,100C2820,100,2760,100,2700,100C2640,100,2580,100,2520,100C2460,100,2400,100,2340,100C2280,100,2220,100,2160,100C2100,100,2040,100,1980,100C1920,100,1860,100,1800,100C1740,100,1680,100,1620,100C1560,100,1500,100,1440,100C1380,100,1320,100,1260,100C1200,100,1140,100,1080,100C1020,100,960,100,900,100C840,100,780,100,720,100C660,100,600,100,540,100C480,100,420,100,360,100C300,100,240,100,180,100C120,100,60,100,30,100L0,100Z"/></svg>